<svg class="svg-icon"
  style="width: 1em; height: 1em;vertical-align: middle;fill: currentColor;overflow: hidden;"
  viewBox="0 0 1024 1024" version="1.1" xmlns="http://www.w3.org/2000/svg">
  <path
    fill="#ecf0f1"
    d="M796 231.2c-155.5-155.5-408.5-155.5-564 0s-155.5 408.5 0 564 408.5 155.5 564 0 155.6-408.5 0-564zM765.8 765C627 903.9 401 903.9 262.2 765c-138.9-138.9-138.9-364.8 0-503.6s364.8-138.9 503.6 0 138.9 364.8 0 503.6z" />
  <path
    fill="#ecf0f1"
    d="M544.2 513.2L697 360.4c8.3-8.3 8.3-21.9 0-30.2s-21.9-8.3-30.2 0L514 483 361.2 330.2c-8.3-8.3-21.9-8.3-30.2 0s-8.3 21.9 0 30.2l152.8 152.8L331 665.9c-8.3 8.3-8.3 21.9 0 30.2s21.9 8.3 30.2 0L514 543.4l152.8 152.8c8.3 8.3 21.9 8.3 30.2 0s8.3-21.9 0-30.2L544.2 513.2z" />
</svg>